# xmcd
#
# Track frame offsets:
# 150
# 17172
# 35241
# 52804
# 70672
# 90011
# 104687
# 119927
# 136338
# 155166
# 174480
# 193359
# 212136
#
# Disc length: 3041 seconds
#
#
# Revision: 0
# Processed by: cddbd v1.5.2PL0 Copyright (c) Steve Scherf et al.
# Submitted via: FreeRIP 2.944 
#
DISCID=c00bdf0d
DTITLE=Rihanna - A Girl Like Me
DYEAR=2006
DGENRE=
TTITLE0=Unfaithful
TTITLE1=SOS
TTITLE2=Kisses Don't Lie
TTITLE3=We Ride
TTITLE4=Dem Haters
TTITLE5=Final Goodbye
TTITLE6=Crazy Little Thing Called Love
TTITLE7=Selfish Girl
TTITLE8=P.S. (I'm Still Not Over You)
TTITLE9=A Girl Like Me
TTITLE10=A Million Miles Away
TTITLE11=If It's Lovin' That You Want (Part 2 - Album Version)
TTITLE12=Break It Off
EXTD=Burnt With NAPSTER\nRipped By Johnny ®187 Rockstar
EXTT0=
EXTT1=
EXTT2=
EXTT3=
EXTT4=
EXTT5=
EXTT6=
EXTT7=
EXTT8=
EXTT9=
EXTT10=
EXTT11=
EXTT12=
PLAYORDER=
